# xmcd
#
# Track frame offsets:
#	150
#	13975
#	25230
#	60457
#	75395
#	93207
#	112835
#	125840
#	137410
#	158517
#	173102
#	193377
#	209522
#	220087
#
# Disc length: 3005 seconds
#
# Revision: 0
# Processed by: cddbd v1.4PL0 Copyright (c) Steve Scherf et al.
# Submitted via: dBpowerAMP V4.0
#
DISCID=b80bbb0e
DTITLE=Boots Randolph - Boots Randolph Live
DYEAR=1992
DGENRE=Country
TTITLE0=Gentle on my Mind, Cotton Fields, Oh Lonesome Me
TTITLE1=King of the Road
TTITLE2=The Shadow of Your Smile
TTITLE3=Big Daddy
TTITLE4=Smoke Gets in Your Eyes
TTITLE5=Wabash Cannonball
TTITLE6=Unchained Melody
TTITLE7=Down Yonder
TTITLE8=You've Lost That Lovin' Feeling
TTITLE9=Southern Nights
TTITLE10=Honky Tonk
TTITLE11=Star Dust
TTITLE12=Yakety Sax
TTITLE13=Night Train
EXTD=Boots Randolph Live featuring The Shawow of Your Smile, Big Daddy, Honky Tonk, Yakety Sax and others.\n\nSubmitted by Richard Smith
EXTT0=
EXTT1=
EXTT2=
EXTT3=
EXTT4=
EXTT5=
EXTT6=
EXTT7=
EXTT8=
EXTT9=
EXTT10=
EXTT11=
EXTT12=
EXTT13=
PLAYORDER=
